<?xml version="1.0" encoding="utf-8" standalone="no"?>
<!DOCTYPE svg PUBLIC "-//W3C//DTD SVG 1.1//EN"
  "http://www.w3.org/Graphics/SVG/1.1/DTD/svg11.dtd">
<svg xmlns:xlink="http://www.w3.org/1999/xlink" width="460.8pt" height="345.6pt" viewBox="0 0 460.8 345.6" xmlns="http://www.w3.org/2000/svg" version="1.1">
 <metadata>
  <rdf:RDF xmlns:dc="http://purl.org/dc/elements/1.1/" xmlns:cc="http://creativecommons.org/ns#" xmlns:rdf="http://www.w3.org/1999/02/22-rdf-syntax-ns#">
   <cc:Work>
    <dc:type rdf:resource="http://purl.org/dc/dcmitype/StillImage"/>
    <dc:date>2023-03-05T08:23:08.473355</dc:date>
    <dc:format>image/svg+xml</dc:format>
    <dc:creator>
     <cc:Agent>
      <dc:title>Matplotlib v3.7.0, https://matplotlib.org/</dc:title>
     </cc:Agent>
    </dc:creator>
   </cc:Work>
  </rdf:RDF>
 </metadata>
 <defs>
  <style type="text/css">*{stroke-linejoin: round; stroke-linecap: butt}</style>
 </defs>
 <g id="figure_1">
  <g id="patch_1">
   <path d="M 0 345.6 
L 460.8 345.6 
L 460.8 0 
L 0 0 
z
" style="fill: #ffffff"/>
  </g>
  <g id="axes_1">
   <g id="patch_2">
    <path d="M 57.6 307.584 
L 414.72 307.584 
L 414.72 41.472 
L 57.6 41.472 
z
" style="fill: #ffffff"/>
   </g>
   <g id="patch_3">
    <path d="M 146.378971 223.465524 
Q 122.820039 246.40952 100.06206 268.573468 
" clip-path="url(#p0cd354f4d6)" style="fill: none; stroke: #000000; stroke-linecap: round"/>
    <path d="M 104.323029 267.215477 
L 100.06206 268.573468 
L 101.532248 264.349898 
z
" clip-path="url(#p0cd354f4d6)" style="stroke: #000000; stroke-linecap: round"/>
   </g>
   <g id="patch_4">
    <path d="M 168.597022 206.261245 
Q 192.905097 191.504476 216.25746 177.327893 
" clip-path="url(#p0cd354f4d6)" style="fill: none; stroke: #000000; stroke-linecap: round"/>
    <path d="M 211.800335 177.694002 
L 216.25746 177.327893 
L 213.876073 181.113259 
z
" clip-path="url(#p0cd354f4d6)" style="stroke: #000000; stroke-linecap: round"/>
   </g>
   <g id="patch_5">
    <path d="M 99.262726 269.351938 
Q 122.821659 246.407942 145.579638 224.243993 
" clip-path="url(#p0cd354f4d6)" style="fill: none; stroke: #000000; stroke-linecap: round"/>
    <path d="M 141.318669 225.601985 
L 145.579638 224.243993 
L 144.10945 228.467563 
z
" clip-path="url(#p0cd354f4d6)" style="stroke: #000000; stroke-linecap: round"/>
   </g>
   <g id="patch_6">
    <path d="M 88.973441 265.079443 
Q 88.860774 255.015356 88.760624 246.069233 
" clip-path="url(#p0cd354f4d6)" style="fill: none; stroke: #000000; stroke-linecap: round"/>
    <path d="M 86.805526 250.091371 
L 88.760624 246.069233 
L 90.805275 250.046594 
z
" clip-path="url(#p0cd354f4d6)" style="stroke: #000000; stroke-linecap: round"/>
   </g>
   <g id="patch_7">
    <path d="M 103.181684 280.814536 
Q 112.338974 281.85478 120.385373 282.76883 
" clip-path="url(#p0cd354f4d6)" style="fill: none; stroke: #000000; stroke-linecap: round"/>
    <path d="M 116.636678 280.330125 
L 120.385373 282.76883 
L 116.185192 284.304564 
z
" clip-path="url(#p0cd354f4d6)" style="stroke: #000000; stroke-linecap: round"/>
   </g>
   <g id="patch_8">
    <path d="M 217.216244 176.745842 
Q 192.908169 191.502611 169.555805 205.679194 
" clip-path="url(#p0cd354f4d6)" style="fill: none; stroke: #000000; stroke-linecap: round"/>
    <path d="M 174.01293 205.313085 
L 169.555805 205.679194 
L 171.937193 201.893828 
z
" clip-path="url(#p0cd354f4d6)" style="stroke: #000000; stroke-linecap: round"/>
   </g>
   <g id="patch_9">
    <path d="M 242.017465 163.216808 
Q 267.61709 150.750769 292.211528 138.774218 
" clip-path="url(#p0cd354f4d6)" style="fill: none; stroke: #000000; stroke-linecap: round"/>
    <path d="M 287.739638 138.727329 
L 292.211528 138.774218 
L 289.490882 142.323597 
z
" clip-path="url(#p0cd354f4d6)" style="stroke: #000000; stroke-linecap: round"/>
   </g>
   <g id="patch_10">
    <path d="M 102.298991 227.332798 
Q 122.550352 222.202309 141.717919 217.346389 
" clip-path="url(#p0cd354f4d6)" style="fill: none; stroke: #000000; stroke-linecap: round"/>
    <path d="M 137.349251 216.389966 
L 141.717919 217.346389 
L 138.33158 220.267469 
z
" clip-path="url(#p0cd354f4d6)" style="stroke: #000000; stroke-linecap: round"/>
   </g>
   <g id="patch_11">
    <path d="M 88.748037 244.944957 
Q 88.860704 255.009044 88.960855 263.955167 
" clip-path="url(#p0cd354f4d6)" style="fill: none; stroke: #000000; stroke-linecap: round"/>
    <path d="M 90.915953 259.93303 
L 88.960855 263.955167 
L 86.916203 259.977806 
z
" clip-path="url(#p0cd354f4d6)" style="stroke: #000000; stroke-linecap: round"/>
   </g>
   <g id="patch_12">
    <path d="M 97.902372 241.451956 
Q 112.070114 257.648315 125.501744 273.003163 
" clip-path="url(#p0cd354f4d6)" style="fill: none; stroke: #000000; stroke-linecap: round"/>
    <path d="M 124.373496 268.675687 
L 125.501744 273.003163 
L 121.362814 271.309276 
z
" clip-path="url(#p0cd354f4d6)" style="stroke: #000000; stroke-linecap: round"/>
   </g>
   <g id="patch_13">
    <path d="M 126.238649 273.845582 
Q 112.070908 257.649223 98.639277 242.294375 
" clip-path="url(#p0cd354f4d6)" style="fill: none; stroke: #000000; stroke-linecap: round"/>
    <path d="M 99.767526 246.621852 
L 98.639277 242.294375 
L 102.778208 243.988263 
z
" clip-path="url(#p0cd354f4d6)" style="stroke: #000000; stroke-linecap: round"/>
   </g>
   <g id="patch_14">
    <path d="M 139.561617 270.926663 
Q 146.031556 249.042135 152.184522 228.229769 
" clip-path="url(#p0cd354f4d6)" style="fill: none; stroke: #000000; stroke-linecap: round"/>
    <path d="M 149.132545 231.498627 
L 152.184522 228.229769 
L 152.968422 232.632665 
z
" clip-path="url(#p0cd354f4d6)" style="stroke: #000000; stroke-linecap: round"/>
   </g>
   <g id="patch_15">
    <path d="M 293.215562 138.285292 
Q 267.615937 150.751331 243.021499 162.727882 
" clip-path="url(#p0cd354f4d6)" style="fill: none; stroke: #000000; stroke-linecap: round"/>
    <path d="M 247.493389 162.774771 
L 243.021499 162.727882 
L 245.742144 159.178503 
z
" clip-path="url(#p0cd354f4d6)" style="stroke: #000000; stroke-linecap: round"/>
   </g>
   <g id="patch_16">
    <path d="M 317.922238 124.596693 
Q 344.831464 107.774011 370.792669 91.543998 
" clip-path="url(#p0cd354f4d6)" style="fill: none; stroke: #000000; stroke-linecap: round"/>
    <path d="M 366.340728 91.968522 
L 370.792669 91.543998 
L 368.461124 95.360265 
z
" clip-path="url(#p0cd354f4d6)" style="stroke: #000000; stroke-linecap: round"/>
   </g>
   <g id="patch_17">
    <path d="M 371.737743 90.953171 
Q 344.828517 107.775854 318.867311 124.005867 
" clip-path="url(#p0cd354f4d6)" style="fill: none; stroke: #000000; stroke-linecap: round"/>
    <path d="M 323.319252 123.581343 
L 318.867311 124.005867 
L 321.198856 120.1896 
z
" clip-path="url(#p0cd354f4d6)" style="stroke: #000000; stroke-linecap: round"/>
   </g>
   <g id="patch_18">
    <path d="M 380.593496 97.243978 
Q 378.632945 105.861894 376.920406 113.389631 
" clip-path="url(#p0cd354f4d6)" style="fill: none; stroke: #000000; stroke-linecap: round"/>
    <path d="M 379.757894 109.932947 
L 376.920406 113.389631 
L 375.857551 109.04563 
z
" clip-path="url(#p0cd354f4d6)" style="stroke: #000000; stroke-linecap: round"/>
   </g>
   <g id="patch_19">
    <path d="M 370.617981 78.164555 
Q 360.322615 74.009955 351.064047 70.273746 
" clip-path="url(#p0cd354f4d6)" style="fill: none; stroke: #000000; stroke-linecap: round"/>
    <path d="M 354.024969 73.625304 
L 351.064047 70.273746 
L 355.521847 69.915944 
z
" clip-path="url(#p0cd354f4d6)" style="stroke: #000000; stroke-linecap: round"/>
   </g>
   <g id="patch_20">
    <path d="M 359.419202 129.067844 
Q 339.734463 130.181496 321.165974 131.231996 
" clip-path="url(#p0cd354f4d6)" style="fill: none; stroke: #000000; stroke-linecap: round"/>
    <path d="M 325.272556 133.002867 
L 321.165974 131.231996 
L 325.04662 129.009253 
z
" clip-path="url(#p0cd354f4d6)" style="stroke: #000000; stroke-linecap: round"/>
   </g>
   <g id="patch_21">
    <path d="M 376.67209 114.481142 
Q 378.632641 105.863226 380.34518 98.335489 
" clip-path="url(#p0cd354f4d6)" style="fill: none; stroke: #000000; stroke-linecap: round"/>
    <path d="M 377.507693 101.792173 
L 380.34518 98.335489 
L 381.408035 102.67949 
z
" clip-path="url(#p0cd354f4d6)" style="stroke: #000000; stroke-linecap: round"/>
   </g>
   <g id="patch_22">
    <path d="M 366.488139 116.009622 
Q 355.226149 96.417783 344.521344 77.795246 
" clip-path="url(#p0cd354f4d6)" style="fill: none; stroke: #000000; stroke-linecap: round"/>
    <path d="M 344.780848 82.259846 
L 344.521344 77.795246 
L 348.248727 80.266403 
z
" clip-path="url(#p0cd354f4d6)" style="stroke: #000000; stroke-linecap: round"/>
   </g>
   <g id="patch_23">
    <path d="M 331.017047 77.419885 
Q 321.421731 98.331457 312.292685 118.226864 
" clip-path="url(#p0cd354f4d6)" style="fill: none; stroke: #000000; stroke-linecap: round"/>
    <path d="M 315.778634 115.425407 
L 312.292685 118.226864 
L 312.143089 113.75723 
z
" clip-path="url(#p0cd354f4d6)" style="stroke: #000000; stroke-linecap: round"/>
   </g>
   <g id="patch_24">
    <path d="M 343.963027 76.823974 
Q 355.225017 96.415813 365.929822 115.03835 
" clip-path="url(#p0cd354f4d6)" style="fill: none; stroke: #000000; stroke-linecap: round"/>
    <path d="M 365.670318 110.57375 
L 365.929822 115.03835 
L 362.202439 112.567193 
z
" clip-path="url(#p0cd354f4d6)" style="stroke: #000000; stroke-linecap: round"/>
   </g>
   <g id="matplotlib.axis_1">
    <g id="xtick_1"/>
    <g id="xtick_2"/>
    <g id="xtick_3"/>
    <g id="xtick_4"/>
    <g id="xtick_5"/>
   </g>
   <g id="matplotlib.axis_2">
    <g id="ytick_1"/>
    <g id="ytick_2"/>
    <g id="ytick_3"/>
    <g id="ytick_4"/>
    <g id="ytick_5"/>
    <g id="ytick_6"/>
    <g id="ytick_7"/>
   </g>
   <g id="PathCollection_1">
    <defs>
     <path id="m82d8cf91ad" d="M 0 14.142136 
C 3.750538 14.142136 7.347969 12.652031 10 10 
C 12.652031 7.347969 14.142136 3.750538 14.142136 0 
C 14.142136 -3.750538 12.652031 -7.347969 10 -10 
C 7.347969 -12.652031 3.750538 -14.142136 0 -14.142136 
C -3.750538 -14.142136 -7.347969 -12.652031 -10 -10 
C -12.652031 -7.347969 -14.142136 -3.750538 -14.142136 0 
C -14.142136 3.750538 -12.652031 7.347969 -10 10 
C -7.347969 12.652031 -3.750538 14.142136 0 14.142136 
z
" style="stroke: #00ffff"/>
    </defs>
    <g clip-path="url(#p0cd354f4d6)">
     <use xlink:href="#m82d8cf91ad" x="156.509971" y="213.598964" style="fill: #00ffff; stroke: #00ffff"/>
     <use xlink:href="#m82d8cf91ad" x="89.131726" y="279.218498" style="fill: #00ffff; stroke: #00ffff"/>
     <use xlink:href="#m82d8cf91ad" x="229.303294" y="169.408123" style="fill: #00ffff; stroke: #00ffff"/>
     <use xlink:href="#m82d8cf91ad" x="88.589752" y="230.805902" style="fill: #00ffff; stroke: #00ffff"/>
     <use xlink:href="#m82d8cf91ad" x="135.551269" y="284.491636" style="fill: #00ffff; stroke: #00ffff"/>
     <use xlink:href="#m82d8cf91ad" x="305.929733" y="132.093977" style="fill: #00ffff; stroke: #00ffff"/>
     <use xlink:href="#m82d8cf91ad" x="383.730248" y="83.455888" style="fill: #00ffff; stroke: #00ffff"/>
     <use xlink:href="#m82d8cf91ad" x="373.535338" y="128.269232" style="fill: #00ffff; stroke: #00ffff"/>
     <use xlink:href="#m82d8cf91ad" x="336.915828" y="64.564364" style="fill: #00ffff; stroke: #00ffff"/>
    </g>
   </g>
   <g id="patch_25">
    <path d="M 57.6 307.584 
L 57.6 41.472 
" style="fill: none; stroke: #000000; stroke-width: 0.8; stroke-linejoin: miter; stroke-linecap: square"/>
   </g>
   <g id="patch_26">
    <path d="M 414.72 307.584 
L 414.72 41.472 
" style="fill: none; stroke: #000000; stroke-width: 0.8; stroke-linejoin: miter; stroke-linecap: square"/>
   </g>
   <g id="patch_27">
    <path d="M 57.6 307.584 
L 414.72 307.584 
" style="fill: none; stroke: #000000; stroke-width: 0.8; stroke-linejoin: miter; stroke-linecap: square"/>
   </g>
   <g id="patch_28">
    <path d="M 57.6 41.472 
L 414.72 41.472 
" style="fill: none; stroke: #000000; stroke-width: 0.8; stroke-linejoin: miter; stroke-linecap: square"/>
   </g>
   <g id="text_1">
    <g clip-path="url(#p0cd354f4d6)">
     <!-- 1 -->
     <g transform="translate(152.692471 216.910214) scale(0.12 -0.12)">
      <defs>
       <path id="DejaVuSans-31" d="M 794 531 
L 1825 531 
L 1825 4091 
L 703 3866 
L 703 4441 
L 1819 4666 
L 2450 4666 
L 2450 531 
L 3481 531 
L 3481 0 
L 794 0 
L 794 531 
z
" transform="scale(0.015625)"/>
      </defs>
      <use xlink:href="#DejaVuSans-31"/>
     </g>
    </g>
   </g>
   <g id="text_2">
    <g clip-path="url(#p0cd354f4d6)">
     <!-- 2 -->
     <g transform="translate(85.314226 282.529748) scale(0.12 -0.12)">
      <defs>
       <path id="DejaVuSans-32" d="M 1228 531 
L 3431 531 
L 3431 0 
L 469 0 
L 469 531 
Q 828 903 1448 1529 
Q 2069 2156 2228 2338 
Q 2531 2678 2651 2914 
Q 2772 3150 2772 3378 
Q 2772 3750 2511 3984 
Q 2250 4219 1831 4219 
Q 1534 4219 1204 4116 
Q 875 4013 500 3803 
L 500 4441 
Q 881 4594 1212 4672 
Q 1544 4750 1819 4750 
Q 2544 4750 2975 4387 
Q 3406 4025 3406 3419 
Q 3406 3131 3298 2873 
Q 3191 2616 2906 2266 
Q 2828 2175 2409 1742 
Q 1991 1309 1228 531 
z
" transform="scale(0.015625)"/>
      </defs>
      <use xlink:href="#DejaVuSans-32"/>
     </g>
    </g>
   </g>
   <g id="text_3">
    <g clip-path="url(#p0cd354f4d6)">
     <!-- 5 -->
     <g transform="translate(225.485794 172.719373) scale(0.12 -0.12)">
      <defs>
       <path id="DejaVuSans-35" d="M 691 4666 
L 3169 4666 
L 3169 4134 
L 1269 4134 
L 1269 2991 
Q 1406 3038 1543 3061 
Q 1681 3084 1819 3084 
Q 2600 3084 3056 2656 
Q 3513 2228 3513 1497 
Q 3513 744 3044 326 
Q 2575 -91 1722 -91 
Q 1428 -91 1123 -41 
Q 819 9 494 109 
L 494 744 
Q 775 591 1075 516 
Q 1375 441 1709 441 
Q 2250 441 2565 725 
Q 2881 1009 2881 1497 
Q 2881 1984 2565 2268 
Q 2250 2553 1709 2553 
Q 1456 2553 1204 2497 
Q 953 2441 691 2322 
L 691 4666 
z
" transform="scale(0.015625)"/>
      </defs>
      <use xlink:href="#DejaVuSans-35"/>
     </g>
    </g>
   </g>
   <g id="text_4">
    <g clip-path="url(#p0cd354f4d6)">
     <!-- 3 -->
     <g transform="translate(84.772252 234.117152) scale(0.12 -0.12)">
      <defs>
       <path id="DejaVuSans-33" d="M 2597 2516 
Q 3050 2419 3304 2112 
Q 3559 1806 3559 1356 
Q 3559 666 3084 287 
Q 2609 -91 1734 -91 
Q 1441 -91 1130 -33 
Q 819 25 488 141 
L 488 750 
Q 750 597 1062 519 
Q 1375 441 1716 441 
Q 2309 441 2620 675 
Q 2931 909 2931 1356 
Q 2931 1769 2642 2001 
Q 2353 2234 1838 2234 
L 1294 2234 
L 1294 2753 
L 1863 2753 
Q 2328 2753 2575 2939 
Q 2822 3125 2822 3475 
Q 2822 3834 2567 4026 
Q 2313 4219 1838 4219 
Q 1578 4219 1281 4162 
Q 984 4106 628 3988 
L 628 4550 
Q 988 4650 1302 4700 
Q 1616 4750 1894 4750 
Q 2613 4750 3031 4423 
Q 3450 4097 3450 3541 
Q 3450 3153 3228 2886 
Q 3006 2619 2597 2516 
z
" transform="scale(0.015625)"/>
      </defs>
      <use xlink:href="#DejaVuSans-33"/>
     </g>
    </g>
   </g>
   <g id="text_5">
    <g clip-path="url(#p0cd354f4d6)">
     <!-- 4 -->
     <g transform="translate(131.733769 287.802886) scale(0.12 -0.12)">
      <defs>
       <path id="DejaVuSans-34" d="M 2419 4116 
L 825 1625 
L 2419 1625 
L 2419 4116 
z
M 2253 4666 
L 3047 4666 
L 3047 1625 
L 3713 1625 
L 3713 1100 
L 3047 1100 
L 3047 0 
L 2419 0 
L 2419 1100 
L 313 1100 
L 313 1709 
L 2253 4666 
z
" transform="scale(0.015625)"/>
      </defs>
      <use xlink:href="#DejaVuSans-34"/>
     </g>
    </g>
   </g>
   <g id="text_6">
    <g clip-path="url(#p0cd354f4d6)">
     <!-- 6 -->
     <g transform="translate(302.112233 135.405227) scale(0.12 -0.12)">
      <defs>
       <path id="DejaVuSans-36" d="M 2113 2584 
Q 1688 2584 1439 2293 
Q 1191 2003 1191 1497 
Q 1191 994 1439 701 
Q 1688 409 2113 409 
Q 2538 409 2786 701 
Q 3034 994 3034 1497 
Q 3034 2003 2786 2293 
Q 2538 2584 2113 2584 
z
M 3366 4563 
L 3366 3988 
Q 3128 4100 2886 4159 
Q 2644 4219 2406 4219 
Q 1781 4219 1451 3797 
Q 1122 3375 1075 2522 
Q 1259 2794 1537 2939 
Q 1816 3084 2150 3084 
Q 2853 3084 3261 2657 
Q 3669 2231 3669 1497 
Q 3669 778 3244 343 
Q 2819 -91 2113 -91 
Q 1303 -91 875 529 
Q 447 1150 447 2328 
Q 447 3434 972 4092 
Q 1497 4750 2381 4750 
Q 2619 4750 2861 4703 
Q 3103 4656 3366 4563 
z
" transform="scale(0.015625)"/>
      </defs>
      <use xlink:href="#DejaVuSans-36"/>
     </g>
    </g>
   </g>
   <g id="text_7">
    <g clip-path="url(#p0cd354f4d6)">
     <!-- 7 -->
     <g transform="translate(379.912748 86.767138) scale(0.12 -0.12)">
      <defs>
       <path id="DejaVuSans-37" d="M 525 4666 
L 3525 4666 
L 3525 4397 
L 1831 0 
L 1172 0 
L 2766 4134 
L 525 4134 
L 525 4666 
z
" transform="scale(0.015625)"/>
      </defs>
      <use xlink:href="#DejaVuSans-37"/>
     </g>
    </g>
   </g>
   <g id="text_8">
    <g clip-path="url(#p0cd354f4d6)">
     <!-- 8 -->
     <g transform="translate(369.717838 131.580482) scale(0.12 -0.12)">
      <defs>
       <path id="DejaVuSans-38" d="M 2034 2216 
Q 1584 2216 1326 1975 
Q 1069 1734 1069 1313 
Q 1069 891 1326 650 
Q 1584 409 2034 409 
Q 2484 409 2743 651 
Q 3003 894 3003 1313 
Q 3003 1734 2745 1975 
Q 2488 2216 2034 2216 
z
M 1403 2484 
Q 997 2584 770 2862 
Q 544 3141 544 3541 
Q 544 4100 942 4425 
Q 1341 4750 2034 4750 
Q 2731 4750 3128 4425 
Q 3525 4100 3525 3541 
Q 3525 3141 3298 2862 
Q 3072 2584 2669 2484 
Q 3125 2378 3379 2068 
Q 3634 1759 3634 1313 
Q 3634 634 3220 271 
Q 2806 -91 2034 -91 
Q 1263 -91 848 271 
Q 434 634 434 1313 
Q 434 1759 690 2068 
Q 947 2378 1403 2484 
z
M 1172 3481 
Q 1172 3119 1398 2916 
Q 1625 2713 2034 2713 
Q 2441 2713 2670 2916 
Q 2900 3119 2900 3481 
Q 2900 3844 2670 4047 
Q 2441 4250 2034 4250 
Q 1625 4250 1398 4047 
Q 1172 3844 1172 3481 
z
" transform="scale(0.015625)"/>
      </defs>
      <use xlink:href="#DejaVuSans-38"/>
     </g>
    </g>
   </g>
   <g id="text_9">
    <g clip-path="url(#p0cd354f4d6)">
     <!-- 9 -->
     <g transform="translate(333.098328 67.875614) scale(0.12 -0.12)">
      <defs>
       <path id="DejaVuSans-39" d="M 703 97 
L 703 672 
Q 941 559 1184 500 
Q 1428 441 1663 441 
Q 2288 441 2617 861 
Q 2947 1281 2994 2138 
Q 2813 1869 2534 1725 
Q 2256 1581 1919 1581 
Q 1219 1581 811 2004 
Q 403 2428 403 3163 
Q 403 3881 828 4315 
Q 1253 4750 1959 4750 
Q 2769 4750 3195 4129 
Q 3622 3509 3622 2328 
Q 3622 1225 3098 567 
Q 2575 -91 1691 -91 
Q 1453 -91 1209 -44 
Q 966 3 703 97 
z
M 1959 2075 
Q 2384 2075 2632 2365 
Q 2881 2656 2881 3163 
Q 2881 3666 2632 3958 
Q 2384 4250 1959 4250 
Q 1534 4250 1286 3958 
Q 1038 3666 1038 3163 
Q 1038 2656 1286 2365 
Q 1534 2075 1959 2075 
z
" transform="scale(0.015625)"/>
      </defs>
      <use xlink:href="#DejaVuSans-39"/>
     </g>
    </g>
   </g>
  </g>
 </g>
 <defs>
  <clipPath id="p0cd354f4d6">
   <rect x="57.6" y="41.472" width="357.12" height="266.112"/>
  </clipPath>
 </defs>
</svg>
